<svg width="22" height="22" viewBox="0 0 22 22" fill="none" xmlns="http://www.w3.org/2000/svg">
	<g clip-path="url(#clip0_18064_73035)">
		<path
			d="M22 11C22 4.92487 17.0751 0 11 0C4.92487 0 0 4.92487 0 11C0 17.0751 4.92487 22 11 22C17.0751 22 22 17.0751 22 11Z"
			fill="#2C374B" />
		<g clip-path="url(#clip1_18064_73035)">
			<path
				d="M4.80469 8.0355V13.9645C4.80469 14.3457 5.00434 14.6905 5.33709 14.8841L10.4735 17.8486C10.8002 18.0362 11.2056 18.0362 11.5323 17.8486L16.6687 14.8841C16.9954 14.6966 17.2011 14.3457 17.2011 13.9645V8.0355C17.2011 7.65435 17.0015 7.3095 16.6687 7.1159L11.5323 4.1514C11.2056 3.96385 10.8002 3.96385 10.4735 4.1514L5.33709 7.1159C5.01039 7.30345 4.81074 7.65435 4.81074 8.0355H4.80469Z"
				fill="#213147" />
			<path
				d="M12.1192 12.1494L11.3871 14.158C11.369 14.2125 11.369 14.273 11.3871 14.3335L12.6455 17.788L14.1036 16.9471L12.3551 12.1494C12.3128 12.0405 12.1615 12.0405 12.1192 12.1494Z"
				fill="#12AAFF" />
			<path
				d="M13.5895 8.77357C13.5472 8.66467 13.3959 8.66467 13.3536 8.77357L12.6215 10.7822C12.6034 10.8366 12.6034 10.8971 12.6215 10.9576L14.6846 16.6144L16.1426 15.7734L13.5895 8.77962V8.77357Z"
				fill="#12AAFF" />
			<path
				d="M10.9998 4.37525C11.0361 4.37525 11.0724 4.38735 11.1026 4.4055L16.6565 7.612C16.7231 7.6483 16.7594 7.7209 16.7594 7.7935V14.2065C16.7594 14.2791 16.717 14.3517 16.6565 14.388L11.1026 17.5945C11.0724 17.6127 11.0361 17.6248 10.9998 17.6248C10.9635 17.6248 10.9272 17.6127 10.8969 17.5945L5.34304 14.388C5.27649 14.3517 5.24019 14.2791 5.24019 14.2065V7.78745C5.24019 7.71485 5.28254 7.64225 5.34304 7.60595L10.8969 4.39945C10.9272 4.3813 10.9635 4.3692 10.9998 4.3692V4.37525ZM10.9998 3.4375C10.8001 3.4375 10.6065 3.4859 10.425 3.58875L4.87114 6.79525C4.51419 7.00095 4.29639 7.37605 4.29639 7.78745V14.2005C4.29639 14.6119 4.51419 14.987 4.87114 15.1927L10.425 18.3992C10.6005 18.502 10.8001 18.5504 10.9998 18.5504C11.1994 18.5504 11.393 18.502 11.5745 18.3992L17.1284 15.1927C17.4854 14.987 17.7032 14.6119 17.7032 14.2005V7.78745C17.7032 7.37605 17.4854 7.00095 17.1284 6.79525L11.5685 3.58875C11.393 3.4859 11.1934 3.4375 10.9937 3.4375H10.9998Z"
				fill="#9DCCED" />
			<path d="M7.32129 16.6204L7.83554 15.2168L8.86404 16.0698L7.90209 16.9531L7.32129 16.6204Z"
				fill="#213147" />
			<path
				d="M10.5278 7.33369H9.11818C9.01533 7.33369 8.91853 7.40024 8.88223 7.49704L5.86328 15.7734L7.32133 16.6144L10.6488 7.49704C10.6791 7.41234 10.6186 7.32764 10.5339 7.32764L10.5278 7.33369Z"
				fill="white" />
			<path
				d="M12.9964 7.33369H11.5868C11.4839 7.33369 11.3871 7.40024 11.3508 7.49704L7.90234 16.9471L9.36039 17.7881L13.1114 7.49704C13.1416 7.41234 13.0811 7.32764 12.9964 7.32764V7.33369Z"
				fill="white" />
		</g>
	</g>
	<defs>
		<clipPath id="clip0_18064_73035">
			<rect width="22" height="22" fill="white" />
		</clipPath>
		<clipPath id="clip1_18064_73035">
			<rect width="15.125" height="15.125" fill="white" transform="translate(3.4375 3.4375)" />
		</clipPath>
	</defs>
</svg>