<svg width="32" height="32" viewBox="0 0 32 32" fill="none" xmlns="http://www.w3.org/2000/svg">
<path d="M16 32C24.8366 32 32 24.8366 32 16C32 7.16344 24.8366 0 16 0C7.16344 0 0 7.16344 0 16C0 24.8366 7.16344 32 16 32Z" fill="#E84142"/>
<path d="M21.6442 16.4157C22.1985 15.4583 23.093 15.4583 23.6473 16.4157L27.0993 22.4756C27.6536 23.4331 27.2001 24.2142 26.0914 24.2142H19.1371C18.041 24.2142 17.5875 23.4331 18.1292 22.4756L21.6442 16.4157ZM14.967 4.7496C15.5214 3.79212 16.4033 3.79212 16.9576 4.7496L17.7261 6.13543L19.5403 9.32283C19.9812 10.2299 19.9812 11.3008 19.5403 12.2079L13.4552 22.7528C12.9009 23.6094 11.9812 24.1512 10.9607 24.2142H5.90877C4.8001 24.2142 4.34656 23.4457 4.90089 22.4756L14.967 4.7496Z" fill="white"/>
</svg>
