<svg width="3724" height="1000" viewBox="0 0 3724 1000" fill="none" xmlns="http://www.w3.org/2000/svg">
<g opacity="0.4">
<path fill-rule="evenodd" clip-rule="evenodd" d="M1507.48 70.2598C1507.52 70.3413 1507.49 70.4404 1507.41 70.4812L1419.37 114.502H1528.96L1595.91 70.196C1595.99 70.1457 1596.09 70.1666 1596.14 70.2426C1596.19 70.3185 1596.17 70.4209 1596.09 70.4712L1529.56 114.502H1640.27L1684.55 70.2169C1684.61 70.1525 1684.72 70.1525 1684.78 70.2169C1684.85 70.2814 1684.85 70.3859 1684.78 70.4503L1640.73 114.502H1750.57L1773.19 70.2585C1773.23 70.1774 1773.33 70.1452 1773.41 70.1867C1773.49 70.2282 1773.52 70.3276 1773.48 70.4087L1750.94 114.502H1861.84V70.3336C1861.84 70.2425 1861.91 70.1686 1862 70.1686C1862.09 70.1686 1862.17 70.2425 1862.17 70.3336V269.833V535.833V757.5V1067.83C1862.17 1067.92 1862.09 1068 1862 1068C1861.91 1068 1861.84 1067.92 1861.84 1067.83V757.665H1422.22L1263.65 1067.91C1263.61 1067.99 1263.51 1068.02 1263.43 1067.98C1263.34 1067.94 1263.31 1067.84 1263.35 1067.76L1421.85 757.665H997.569L687.283 1067.95C687.219 1068.01 687.115 1068.01 687.05 1067.95C686.986 1067.89 686.986 1067.78 687.05 1067.72L997.102 757.665H557.665L88.758 1067.97C88.682 1068.02 88.5796 1068 88.5293 1067.92C88.479 1067.85 88.4999 1067.75 88.5759 1067.7L557.067 757.665H133.04L-487.592 1067.98C-487.674 1068.02 -487.773 1067.99 -487.814 1067.91C-487.854 1067.83 -487.821 1067.73 -487.74 1067.69L132.915 757.359C132.922 757.354 132.93 757.35 132.938 757.347L576.249 535.692C576.256 535.687 576.263 535.684 576.271 535.681L886.581 380.526C886.589 380.521 886.597 380.517 886.605 380.513L1108.25 269.692C1108.26 269.688 1108.26 269.683 1108.27 269.68L1285.58 181.026C1285.59 181.021 1285.6 181.017 1285.61 181.013L1418.58 114.526C1418.59 114.521 1418.6 114.517 1418.61 114.513L1507.26 70.186C1507.34 70.1453 1507.44 70.1783 1507.48 70.2598ZM1418.71 114.832L1286.37 181.002H1428.47L1528.46 114.832H1418.71ZM1529.06 114.832L1429.07 181.002H1573.77L1639.94 114.832H1529.06ZM1640.4 114.832L1574.23 181.002H1716.58L1750.4 114.832H1640.4ZM1750.78 114.832L1716.96 181.002H1861.84V114.832H1750.78ZM1861.84 181.332H1716.79L1671.64 269.668H1861.84V181.332ZM1861.84 269.998H1671.47L1614.99 380.502H1861.84V269.998ZM1861.84 380.832H1614.82L1535.68 535.668H1861.84V380.832ZM1861.84 535.998H1535.51L1422.38 757.335H1861.84V535.998ZM1422.01 757.335L1535.14 535.998H1219.24L997.899 757.335H1422.01ZM997.432 757.335L1218.77 535.998H892.628L558.164 757.335H997.432ZM557.566 757.335L892.03 535.998H576.373L133.7 757.335H557.566ZM577.033 535.668H892.529L1126.5 380.832H886.707L577.033 535.668ZM887.367 380.502H1127L1293.99 269.998H1108.37L887.367 380.502ZM1109.03 269.668H1294.48L1427.97 181.332H1285.71L1109.03 269.668ZM1428.57 181.332L1295.08 269.668H1485.1L1573.44 181.332H1428.57ZM1573.9 181.332L1485.57 269.668H1671.27L1716.42 181.332H1573.9ZM1671.1 269.998H1485.24L1374.73 380.502H1614.62L1671.1 269.998ZM1614.45 380.832H1374.4L1219.57 535.668H1535.31L1614.45 380.832ZM1219.1 535.668L1373.94 380.832H1127.1L893.127 535.668H1219.1ZM1127.6 380.502H1374.27L1484.77 269.998H1294.58L1127.6 380.502Z" fill="#864DF7"/>
<path fill-rule="evenodd" clip-rule="evenodd" d="M-0.165009 -107C-0.165009 -107.091 -0.0911357 -107.165 -8.76345e-06 -107.165H886.667H1108.33H1285.67H1418.67H1507.33C1507.42 -107.165 1507.5 -107.091 1507.5 -107C1507.5 -106.909 1507.42 -106.835 1507.33 -106.835H1418.83V-1.58183L1507.3 -18.4954C1507.39 -18.5125 1507.48 -18.4538 1507.5 -18.3643C1507.51 -18.2748 1507.45 -18.1884 1507.36 -18.1712L1418.83 -1.24587V114.667C1418.83 114.758 1418.76 114.832 1418.67 114.832C1418.58 114.832 1418.5 114.758 1418.5 114.667V-1.18277L1285.83 24.1806V181.167C1285.83 181.258 1285.76 181.332 1285.67 181.332C1285.58 181.332 1285.5 181.258 1285.5 181.167V24.2437L1108.5 58.0825V269.833C1108.5 269.924 1108.42 269.998 1108.33 269.998C1108.24 269.998 1108.17 269.924 1108.17 269.833V58.1456L886.832 100.46V380.667C886.832 380.758 886.758 380.832 886.667 380.832C886.576 380.832 886.502 380.758 886.502 380.667V100.523L576.498 159.788V535.833C576.498 535.924 576.424 535.998 576.333 535.998C576.298 535.998 576.265 535.987 576.238 535.968C576.196 535.938 576.168 535.889 576.168 535.833V159.852L133.165 244.543V757.5C133.165 757.591 133.091 757.665 133 757.665C132.909 757.665 132.835 757.591 132.835 757.5V244.606L0.0309742 269.995C-0.0585318 270.013 -0.144962 269.954 -0.162074 269.864C-0.179185 269.775 -0.120498 269.688 -0.0309918 269.671L132.835 244.27V-106.835H-8.76345e-06C-0.0911357 -106.835 -0.165009 -106.909 -0.165009 -107ZM133.165 244.207L576.168 159.516V-106.835H133.165V244.207ZM576.498 159.452L886.502 100.187V-106.835H576.498V159.452ZM886.832 100.124L1108.17 57.8097V-106.835H886.832V100.124ZM1108.5 57.7466L1285.5 23.9077V-106.835H1108.5V57.7466ZM1285.83 23.8446L1418.5 -1.51873V-106.835H1285.83V23.8446Z" fill="#864DF7"/>
<path fill-rule="evenodd" clip-rule="evenodd" d="M1507.17 -107C1507.17 -107.091 1507.24 -107.165 1507.33 -107.165H1596H1684.67H1773.33H1862C1862 -107.165 1862 -107.165 1862 -107.165C1862.09 -107.164 1862.17 -107.09 1862.17 -107V-18.3333V70.3334C1862.17 70.4245 1862.09 70.4984 1862 70.4984L1773.33 70.4983H1684.67H1596L1507.33 70.4984C1507.24 70.4984 1507.17 70.4245 1507.17 70.3334V-18.3333V-107ZM1861.84 70.1684V-18.1683H1773.5V70.1684H1861.84ZM1861.84 -18.4983V-106.835H1773.5V-18.4983H1861.84ZM1684.83 -106.835H1773.17V-18.4983H1684.83V-106.835ZM1684.83 -18.1683H1773.17V70.1684H1684.83V-18.1683ZM1684.5 70.1684V-18.1683H1596.17V70.1684H1684.5ZM1684.5 -18.4983V-106.835H1596.17V-18.4983H1684.5ZM1507.5 -106.835H1595.84V-18.4983H1507.5V-106.835ZM1507.5 -18.1683H1595.84V70.1684H1507.5V-18.1683Z" fill="#864DF7"/>
</g>
<g opacity="0.4">
<path fill-rule="evenodd" clip-rule="evenodd" d="M2216.52 70.2598C2216.48 70.3413 2216.51 70.4404 2216.59 70.4812L2304.63 114.502H2195.04L2128.09 70.196C2128.01 70.1457 2127.91 70.1666 2127.86 70.2426C2127.81 70.3185 2127.83 70.4209 2127.91 70.4712L2194.44 114.502H2083.73L2039.45 70.2169C2039.39 70.1525 2039.28 70.1525 2039.22 70.2169C2039.15 70.2814 2039.15 70.3859 2039.22 70.4503L2083.27 114.502H1973.43L1950.81 70.2585C1950.77 70.1774 1950.67 70.1452 1950.59 70.1867C1950.51 70.2282 1950.48 70.3276 1950.52 70.4087L1973.06 114.502H1862.17V70.3336C1862.17 70.2425 1862.09 70.1686 1862 70.1686C1861.91 70.1686 1861.84 70.2425 1861.84 70.3336V269.833V535.833V757.5V1067.83C1861.84 1067.92 1861.91 1068 1862 1068C1862.09 1068 1862.17 1067.92 1862.17 1067.83V757.665H2301.78L2460.35 1067.91C2460.39 1067.99 2460.49 1068.02 2460.58 1067.98C2460.66 1067.94 2460.69 1067.84 2460.65 1067.76L2302.15 757.665H2726.43L3036.72 1067.95C3036.78 1068.01 3036.89 1068.01 3036.95 1067.95C3037.01 1067.89 3037.01 1067.78 3036.95 1067.72L2726.9 757.665H3166.33L3635.24 1067.97C3635.32 1068.02 3635.42 1068 3635.47 1067.92C3635.52 1067.85 3635.5 1067.75 3635.42 1067.7L3166.93 757.665H3590.96L4211.59 1067.98C4211.67 1068.02 4211.77 1067.99 4211.81 1067.91C4211.85 1067.83 4211.82 1067.73 4211.74 1067.69L3591.09 757.359C3591.08 757.354 3591.07 757.35 3591.06 757.347L3147.75 535.692C3147.74 535.687 3147.74 535.684 3147.73 535.681L2837.42 380.526C2837.41 380.521 2837.4 380.517 2837.39 380.513L2615.75 269.692C2615.74 269.688 2615.74 269.683 2615.73 269.68L2438.42 181.026C2438.41 181.021 2438.4 181.017 2438.39 181.013L2305.42 114.526C2305.41 114.521 2305.4 114.517 2305.39 114.513L2216.74 70.186C2216.66 70.1453 2216.56 70.1783 2216.52 70.2598ZM2305.29 114.832L2437.63 181.002H2295.53L2195.54 114.832H2305.29ZM2194.94 114.832L2294.93 181.002H2150.23L2084.06 114.832H2194.94ZM2083.6 114.832L2149.77 181.002H2007.42L1973.6 114.832H2083.6ZM1973.22 114.832L2007.05 181.002H1862.17V114.832H1973.22ZM1862.17 181.332H2007.21L2052.36 269.668H1862.17V181.332ZM1862.17 269.998H2052.53L2109.01 380.502H1862.17V269.998ZM1862.17 380.832H2109.18L2188.32 535.668H1862.17V380.832ZM1862.17 535.998H2188.49L2301.62 757.335H1862.17V535.998ZM2301.99 757.335L2188.86 535.998H2504.76L2726.1 757.335H2301.99ZM2726.57 757.335L2505.23 535.998H2831.37L3165.84 757.335H2726.57ZM3166.43 757.335L2831.97 535.998H3147.63L3590.3 757.335H3166.43ZM3146.97 535.668H2831.47L2597.5 380.832H2837.29L3146.97 535.668ZM2836.63 380.502H2597L2430.01 269.998H2615.63L2836.63 380.502ZM2614.97 269.668H2429.52L2296.03 181.332H2438.29L2614.97 269.668ZM2295.43 181.332L2428.92 269.668H2238.9L2150.56 181.332H2295.43ZM2150.1 181.332L2238.43 269.668H2052.73L2007.58 181.332H2150.1ZM2052.9 269.998H2238.76L2349.27 380.502H2109.38L2052.9 269.998ZM2109.55 380.832H2349.6L2504.43 535.668H2188.69L2109.55 380.832ZM2504.9 535.668L2350.06 380.832H2596.9L2830.87 535.668H2504.9ZM2596.4 380.502H2349.73L2239.23 269.998H2429.42L2596.4 380.502Z" fill="#864DF7"/>
<path fill-rule="evenodd" clip-rule="evenodd" d="M3724.17 -107C3724.17 -107.091 3724.09 -107.165 3724 -107.165H2837.33H2615.67H2438.33H2305.33H2216.67C2216.58 -107.165 2216.5 -107.091 2216.5 -107C2216.5 -106.909 2216.58 -106.835 2216.67 -106.835H2305.17V-1.58183L2216.7 -18.4954C2216.61 -18.5125 2216.52 -18.4538 2216.5 -18.3643C2216.49 -18.2748 2216.55 -18.1884 2216.64 -18.1712L2305.17 -1.24587V114.667C2305.17 114.758 2305.24 114.832 2305.33 114.832C2305.42 114.832 2305.5 114.758 2305.5 114.667V-1.18277L2438.17 24.1806V181.167C2438.17 181.258 2438.24 181.332 2438.33 181.332C2438.42 181.332 2438.5 181.258 2438.5 181.167V24.2437L2615.5 58.0825V269.833C2615.5 269.924 2615.58 269.998 2615.67 269.998C2615.76 269.998 2615.83 269.924 2615.83 269.833V58.1456L2837.17 100.46V380.667C2837.17 380.758 2837.24 380.832 2837.33 380.832C2837.42 380.832 2837.5 380.758 2837.5 380.667V100.523L3147.5 159.788V535.833C3147.5 535.924 3147.58 535.998 3147.67 535.998C3147.7 535.998 3147.73 535.987 3147.76 535.968C3147.8 535.938 3147.83 535.889 3147.83 535.833V159.852L3590.83 244.543V757.5C3590.83 757.591 3590.91 757.665 3591 757.665C3591.09 757.665 3591.16 757.591 3591.16 757.5V244.606L3723.97 269.995C3724.06 270.013 3724.14 269.954 3724.16 269.864C3724.18 269.775 3724.12 269.688 3724.03 269.671L3591.16 244.27V-106.835H3724C3724.09 -106.835 3724.17 -106.909 3724.17 -107ZM3590.83 244.207L3147.83 159.516V-106.835H3590.83V244.207ZM3147.5 159.452L2837.5 100.187V-106.835H3147.5V159.452ZM2837.17 100.124L2615.83 57.8097V-106.835H2837.17V100.124ZM2615.5 57.7466L2438.5 23.9077V-106.835H2615.5V57.7466ZM2438.17 23.8446L2305.5 -1.51873V-106.835H2438.17V23.8446Z" fill="#864DF7"/>
<path fill-rule="evenodd" clip-rule="evenodd" d="M2216.83 -107C2216.83 -107.091 2216.76 -107.165 2216.67 -107.165H2128H2039.33H1950.67H1862C1862 -107.165 1862 -107.165 1862 -107.165C1861.91 -107.164 1861.83 -107.09 1861.83 -107V-18.3333V70.3334C1861.83 70.4245 1861.91 70.4984 1862 70.4984L1950.67 70.4983H2039.33H2128L2216.67 70.4984C2216.76 70.4984 2216.83 70.4245 2216.83 70.3334V-18.3333V-107ZM1862.16 70.1684V-18.1683H1950.5V70.1684H1862.16ZM1862.16 -18.4983V-106.835H1950.5V-18.4983H1862.16ZM2039.17 -106.835H1950.83V-18.4983H2039.17V-106.835ZM2039.17 -18.1683H1950.83V70.1684H2039.17V-18.1683ZM2039.5 70.1684V-18.1683H2127.83V70.1684H2039.5ZM2039.5 -18.4983V-106.835H2127.83V-18.4983H2039.5ZM2216.5 -106.835H2128.16V-18.4983H2216.5V-106.835ZM2216.5 -18.1683H2128.16V70.1684H2216.5V-18.1683Z" fill="#864DF7"/>
</g>
</svg>
