<svg width="18" height="22" viewBox="0 0 18 22" fill="none" xmlns="http://www.w3.org/2000/svg">
<path fill-rule="evenodd" clip-rule="evenodd" d="M14.521 10.1515L14.5098 7.75445H14.5185L12.4825 6.55594L8.99369 8.613L5.52596 6.55594L3.49123 7.75445V10.1515L6.98005 12.1986V16.3028L9.00609 17.4901L11.0321 16.3028V12.1986L14.521 10.1515ZM8.99493 0.415771L3.48999 3.66141L5.51604 4.85992L8.99493 2.80286L12.4837 4.85992L14.5098 3.66141L8.99493 0.415771ZM2.03721 15.0945L2.02605 11.0002L0.00124114 9.80293V16.3041L5.5161 19.5386V17.1416L2.03721 15.0945ZM2.02605 9.29177V6.90592L4.06202 5.70742L2.02605 4.50891L0 5.70742V8.09326L2.02605 9.29177ZM8.995 4.50891L6.96895 5.70742L8.995 6.90592L11.031 5.70742L8.995 4.50891ZM5.51604 13.0473L3.48999 11.8488V14.2458L5.51604 15.4332V13.0473ZM8.99493 19.1987L6.96888 18.0002V20.386L8.99493 21.5845L11.0309 20.386V18.0002L8.99493 19.1987ZM15.9626 4.50891L13.9366 5.70742L15.9626 6.90592V9.29177L17.9986 8.09326V5.70742L15.9626 4.50891ZM17.9998 9.80169L15.9738 11.0002L15.9626 15.0945L12.485 17.1404V19.5374L17.9998 16.3029V9.80169ZM14.5102 14.2457L12.4841 15.433V13.0472L14.5102 11.8487V14.2457Z" fill="#F0B90B"/>
</svg>
