<?xml version="1.0" encoding="UTF-8"?>
<svg xmlns="http://www.w3.org/2000/svg" version="1.1" width="2500px" height="2500px" style="shape-rendering:geometricPrecision; text-rendering:geometricPrecision; image-rendering:optimizeQuality; fill-rule:evenodd; clip-rule:evenodd" xmlns:xlink="http://www.w3.org/1999/xlink">
<g><path style="opacity:1" fill="#03316c" d="M 1247.5,-0.5 C 1248.83,-0.5 1250.17,-0.5 1251.5,-0.5C 1611.52,207.599 1971.69,415.599 2332,623.5C 2332.17,832.167 2332.33,1040.83 2332.5,1249.5C 2332.33,1458.17 2332.17,1666.83 2332,1875.5C 1971.69,2083.4 1611.52,2291.4 1251.5,2499.5C 1250.17,2499.5 1248.83,2499.5 1247.5,2499.5C 888.167,2291.83 528.833,2084.17 169.5,1876.5C 169.217,1875.71 168.717,1875.04 168,1874.5C 167.833,1666.17 167.667,1457.83 167.5,1249.5C 167.667,1041.17 167.833,832.833 168,624.5C 168.717,623.956 169.217,623.289 169.5,622.5C 528.833,414.833 888.167,207.167 1247.5,-0.5 Z"/></g>
<g><path style="opacity:1" fill="#a3b4c9" d="M 1674.5,540.5 C 1390.1,540.168 1105.76,540.501 821.5,541.5C 963.332,540.167 1105.5,539.5 1248,539.5C 1390.33,539.5 1532.5,539.833 1674.5,540.5 Z"/></g>
<g><path style="opacity:1" fill="#fefefe" d="M 1674.5,540.5 C 1709.24,684.541 1743.24,828.875 1776.5,973.5C 1425.17,973.5 1073.83,973.5 722.5,973.5C 755.502,829.477 788.502,685.477 821.5,541.5C 1105.76,540.501 1390.1,540.168 1674.5,540.5 Z"/></g>
<g><path style="opacity:0.992" fill="#1b457a" d="M 169.5,622.5 C 169.217,623.289 168.717,623.956 168,624.5C 167.833,832.833 167.667,1041.17 167.5,1249.5C 167.667,1457.83 167.833,1666.17 168,1874.5C 168.717,1875.04 169.217,1875.71 169.5,1876.5C 168.504,1876.59 167.671,1876.25 167,1875.5C 166.833,1666.83 166.667,1458.17 166.5,1249.5C 166.667,1040.83 166.833,832.167 167,623.5C 167.671,622.748 168.504,622.414 169.5,622.5 Z"/></g>
<g><path style="opacity:1" fill="#55749c" d="M 1524.5,1042.5 C 1341.17,1041.17 1157.83,1041.17 974.5,1042.5C 973.957,1042.44 973.624,1042.11 973.5,1041.5C 1157.5,1040.17 1341.5,1040.17 1525.5,1041.5C 1525.38,1042.11 1525.04,1042.44 1524.5,1042.5 Z"/></g>
<g><path style="opacity:1" fill="#fefefe" d="M 1524.5,1042.5 C 1494.68,1122.14 1464.85,1201.81 1435,1281.5C 1435.22,1292.84 1435.89,1304.17 1437,1315.5C 1445.02,1395.45 1452.52,1475.45 1459.5,1555.5C 1319.5,1555.5 1179.5,1555.5 1039.5,1555.5C 1047.67,1472.14 1056.17,1388.81 1065,1305.5C 1066.05,1297.18 1066.38,1288.85 1066,1280.5C 1035.21,1201.25 1004.71,1121.92 974.5,1042.5C 1157.83,1041.17 1341.17,1041.17 1524.5,1042.5 Z"/></g>
<g><path style="opacity:1" fill="#fefefe" d="M 1778.5,1121.5 C 1873.92,1192.43 1968.58,1264.26 2062.5,1337C 1934.55,1561.73 1806.22,1786.23 1677.5,2010.5C 1625.84,2011.67 1574.17,2011.83 1522.5,2011C 1461.63,1954.46 1400.47,1898.3 1339,1842.5C 1338.33,1813.17 1338.33,1783.83 1339,1754.5C 1402.03,1693.8 1465.36,1633.47 1529,1573.5C 1529.17,1476.83 1529.67,1380.16 1530.5,1283.5C 1613.23,1229.48 1695.9,1175.48 1778.5,1121.5 Z"/></g>
<g><path style="opacity:1" fill="#fefefe" d="M 721.5,1123.5 C 805.308,1176.57 888.974,1229.91 972.5,1283.5C 973.167,1380.17 973.833,1476.83 974.5,1573.5C 1037.82,1633.65 1100.98,1693.98 1164,1754.5C 1164.67,1783.83 1164.67,1813.17 1164,1842.5C 1103.13,1899.7 1041.97,1956.53 980.5,2013C 928.163,2013.83 875.83,2013.67 823.5,2012.5C 694.114,1787.56 565.114,1562.4 436.5,1337C 436.759,1335.74 437.426,1334.74 438.5,1334C 533.258,1264.3 627.591,1194.13 721.5,1123.5 Z"/></g>
</svg>
