<svg xmlns="http://www.w3.org/2000/svg" width="24" height="24" viewBox="0 0 24 24" fill="none">
    <circle cx="12" cy="12" r="12" fill="#05F283"/>
    <g clip-path="url(#clip0_19020_56542)">
        <path d="M17.0258 6.88052C15.684 5.53876 13.9 4.7998 12.0025 4.7998C10.1049 4.7998 8.32091 5.53876 6.97915 6.88052C5.63737 8.22231 4.89844 10.0063 4.89844 11.9038V12.0957L12.0025 19.1998L19.1065 12.0958V11.9039C19.1065 10.0063 18.3676 8.22231 17.0258 6.88052ZM5.83455 11.7215C5.92607 10.8418 6.6718 10.1536 7.57532 10.1536C8.54043 10.1536 9.32557 10.9388 9.32557 11.9039V11.979L10.9423 16.8292L5.83455 11.7215ZM10.2536 11.8329C10.2909 10.9005 11.0611 10.1536 12.0025 10.1536C12.9438 10.1536 13.714 10.9006 13.7513 11.8329L12.0025 17.0795L10.2536 11.8329ZM13.0626 16.8292L14.6794 11.979V11.9038C14.6794 10.9387 15.4646 10.1536 16.4296 10.1536C17.3331 10.1536 18.0789 10.8417 18.1704 11.7214L13.0626 16.8292Z" fill="black"/>
    </g>
    <defs>
        <clipPath id="clip0_19020_56542">
            <rect width="14.4" height="14.4" fill="white" transform="translate(4.80078 4.7998)"/>
        </clipPath>
    </defs>
</svg>