<svg width="1em" height="1em" viewBox="0 0 20 20" fill="none" xmlns="http://www.w3.org/2000/svg"><g clip-path="url(#clip0_19020_56565)"><path d="M16.9763 2.88988C15.1128 1.02633 12.635 0 9.99953 0C7.36402 0 4.88625 1.02633 3.0227 2.88988C1.1591 4.75348 0.132812 7.23125 0.132812 9.86672V10.1332L9.99953 20L19.8663 10.1333V9.86676C19.8663 7.23125 18.84 4.75348 16.9763 2.88988ZM1.43297 9.6134C1.56008 8.3916 2.59582 7.43582 3.8507 7.43582C5.19113 7.43582 6.2816 8.52633 6.2816 9.86676V9.97117L8.52707 16.7075L1.43297 9.6134ZM7.57055 9.76824C7.62238 8.47324 8.69211 7.43582 9.99953 7.43582C11.307 7.43582 12.3767 8.47328 12.4285 9.76824L9.99953 17.0551L7.57055 9.76824ZM11.472 16.7075L13.7175 9.97113V9.86672C13.7175 8.52629 14.808 7.43578 16.1484 7.43578C17.4032 7.43578 18.439 8.39156 18.5661 9.61336L11.472 16.7075Z" fill="#05F283"></path></g><defs><clipPath id="clip0_19020_56565"><rect width="20" height="20" fill="white"></rect></clipPath></defs></svg>