<svg width="40" height="40" viewBox="0 0 40 40" fill="none" xmlns="http://www.w3.org/2000/svg" class="Logo_logo__ddd86"><rect width="40" height="40" rx="20" fill="#20123F"></rect><path d="M24.125 11H12.5503C11.9232 11 11.5731 11.7239 11.9623 12.2155L25.0248 28.7155C25.167 28.8952 25.3836 29 25.6128 29H29.7772C30.3901 29 30.7443 28.3046 30.3837 27.8089L25.1686 20.638C27.3595 20.1602 29 18.2092 29 15.875C29 13.1826 26.8174 11 24.125 11Z" fill="white"></path><path d="M12.2983 19.141C11.8338 18.6434 11 18.972 11 19.6528V28.25C11 28.6642 11.3358 29 11.75 29H19.7741C20.4299 29 20.7698 28.2177 20.3224 27.7383L12.2983 19.141Z" fill="white"></path></svg>