<svg width="32" height="32" viewBox="0 0 32 32" fill="none" xmlns="http://www.w3.org/2000/svg">
    <circle opacity="1" cx="16" cy="16" r="16" fill="#814DE5" />
    <path
        d="M21.4008 12.5015C21.017 12.2878 20.5235 12.2878 20.0849 12.5015L17.0144 14.2641L14.9308 15.3858L11.9151 17.1484C11.5313 17.362 11.0379 17.362 10.5992 17.1484L8.24151 15.7596C7.8577 15.546 7.58355 15.1187 7.58355 14.638V11.9674C7.58355 11.5401 7.80287 11.1128 8.24151 10.8457L10.5992 9.51039C10.983 9.29674 11.4765 9.29674 11.9151 9.51039L14.2728 10.8991C14.6567 11.1128 14.9308 11.5401 14.9308 12.0208V13.7834L17.0144 12.6083V10.7923C17.0144 10.365 16.795 9.93769 16.3564 9.67062L11.97 7.16024C11.5862 6.94659 11.0927 6.94659 10.654 7.16024L6.15796 9.72404C5.71932 9.93769 5.5 10.365 5.5 10.7923V15.8131C5.5 16.2404 5.71932 16.6677 6.15796 16.9347L10.5992 19.4451C10.983 19.6588 11.4765 19.6588 11.9151 19.4451L14.9308 17.7359L17.0144 16.5608L20.03 14.8516C20.4138 14.638 20.9073 14.638 21.346 14.8516L23.7037 16.1869C24.0875 16.4006 24.3616 16.8279 24.3616 17.3086V19.9792C24.3616 20.4065 24.1423 20.8338 23.7037 21.1009L21.4008 22.4362C21.017 22.6499 20.5235 22.6499 20.0849 22.4362L17.7272 21.1009C17.3433 20.8872 17.0692 20.4599 17.0692 19.9792V18.27L14.9856 19.4451V21.2077C14.9856 21.635 15.205 22.0623 15.6436 22.3294L20.0849 24.8398C20.4687 25.0534 20.9621 25.0534 21.4008 24.8398L25.842 22.3294C26.2258 22.1157 26.5 21.6884 26.5 21.2077V16.1335C26.5 15.7062 26.2807 15.2789 25.842 15.0119L21.4008 12.5015Z"
        fill="white" />
</svg>