<svg width="32" height="32" viewBox="0 0 32 32" fill="none" xmlns="http://www.w3.org/2000/svg">
<path d="M29.351 2.87451L17.3364 11.7644L19.5706 6.52532L29.351 2.87451Z" fill="#E17726"/>
<path d="M2.67725 2.88477L12.4314 6.52576L14.5529 11.8336L2.67725 2.88477Z" fill="#E27625"/>
<path d="M24.516 21.7808L29.8262 21.8818L27.9704 28.1864L21.4907 26.4024L24.516 21.7808Z" fill="#E27625"/>
<path d="M7.48387 21.7808L10.4979 26.4024L4.02913 28.1866L2.18457 21.8818L7.48387 21.7808Z" fill="#E27625"/>
<path d="M14.2644 10.4814L14.4815 17.4906L7.98779 17.1951L9.83488 14.4085L9.85825 14.3817L14.2644 10.4814Z" fill="#E27625"/>
<path d="M17.6685 10.4038L22.142 14.3825L22.1651 14.4092L24.0122 17.1957L17.52 17.4911L17.6685 10.4038Z" fill="#E27625"/>
<path d="M10.6883 21.8013L14.2341 24.564L10.1152 26.5526L10.6883 21.8013Z" fill="#E27625"/>
<path d="M21.3122 21.8008L21.8734 26.5525L17.7661 24.5637L21.3122 21.8008Z" fill="#E27625"/>
<path d="M17.8569 24.3032L22.0249 26.3214L18.1479 28.164L18.1881 26.9462L17.8569 24.3032Z" fill="#D5BFB2"/>
<path d="M14.1421 24.3042L13.8239 26.9263L13.85 28.1626L9.96387 26.3215L14.1421 24.3042Z" fill="#D5BFB2"/>
<path d="M12.9384 18.4053L14.0275 20.6943L10.3193 19.608L12.9384 18.4053Z" fill="#233447"/>
<path d="M19.0615 18.4058L21.6929 19.6082L17.9727 20.6942L19.0615 18.4058Z" fill="#233447"/>
<path d="M10.9717 21.7778L10.3723 26.704L7.15967 21.8855L10.9717 21.7778Z" fill="#CC6228"/>
<path d="M21.0288 21.7778L24.841 21.8855L21.6163 26.7042L21.0288 21.7778Z" fill="#CC6228"/>
<path d="M24.1059 16.917L21.3316 19.7445L19.1926 18.767L18.1684 20.9199L17.4971 17.2177L24.1059 16.917Z" fill="#CC6228"/>
<path d="M7.89258 16.917L14.5026 17.2177L13.8312 20.9199L12.8069 18.7673L10.6791 19.7445L7.89258 16.917Z" fill="#CC6228"/>
<path d="M7.70557 16.3364L10.8444 19.5215L10.9532 22.6659L7.70557 16.3364Z" fill="#E27525"/>
<path d="M24.2974 16.3306L21.0439 22.6714L21.1664 19.5214L24.2974 16.3306Z" fill="#E27525"/>
<path d="M14.349 16.5308L14.4754 17.3259L14.7875 19.3068L14.5869 25.3908L13.638 20.5035L13.6377 20.4529L14.349 16.5308Z" fill="#E27525"/>
<path d="M17.649 16.5195L18.3622 20.4527L18.3619 20.5032L17.4107 25.4028L17.373 24.1773L17.2246 19.2705L17.649 16.5195Z" fill="#E27525"/>
<path d="M21.4457 19.395L21.3395 22.127L18.0283 24.7068L17.3589 24.2339L18.1092 20.3691L21.4457 19.395Z" fill="#F5841F"/>
<path d="M10.5659 19.395L13.8909 20.3691L14.6412 24.2338L13.9718 24.7068L10.6604 22.1267L10.5659 19.395Z" fill="#F5841F"/>
<path d="M9.33008 25.7183L13.5664 27.7255L13.5485 26.8684L13.9029 26.5572H18.0957L18.463 26.8673L18.4359 27.7239L22.6454 25.7233L20.597 27.416L18.1202 29.1172H13.869L11.3937 27.409L9.33008 25.7183Z" fill="#C0AC9D"/>
<path d="M17.5536 24.0361L18.1526 24.4592L18.5036 27.2598L17.9956 26.8308H14.0061L13.5078 27.2684L13.8473 24.4594L14.4465 24.0361H17.5536Z" fill="#161616"/>
<path d="M28.5576 3.12061L29.9997 7.44721L29.0991 11.8218L29.7404 12.3166L28.8726 12.9787L29.5248 13.4824L28.6611 14.269L29.1914 14.653L27.7842 16.2965L22.0125 14.616L21.9624 14.5892L17.8032 11.0806L28.5576 3.12061Z" fill="#763E1A"/>
<path d="M3.44222 3.12061L14.1966 11.0806L10.0374 14.5892L9.98734 14.616L4.21558 16.2965L2.80841 14.653L3.33823 14.2693L2.47496 13.4824L3.12597 12.9793L2.24515 12.3152L2.91069 11.8202L2 7.44737L3.44222 3.12061Z" fill="#763E1A"/>
<path d="M21.7305 14.2485L27.846 16.029L29.8328 22.1524L24.5912 22.1524L20.9795 22.198L23.606 17.0784L21.7305 14.2485Z" fill="#F5841F"/>
<path d="M10.2695 14.2485L8.3936 17.0784L11.0205 22.198L7.4106 22.1524H2.17822L4.1539 16.0291L10.2695 14.2485Z" fill="#F5841F"/>
<path d="M19.8702 6.49609L18.1597 11.116L17.7967 17.357L17.6578 19.3131L17.6468 24.3102H14.3533L14.3427 19.3225L14.2033 17.3553L13.8401 11.116L12.1299 6.49609H19.8702Z" fill="#F5841F"/>
</svg>
