<svg width="32" height="32" viewBox="0 0 32 32" fill="none" xmlns="http://www.w3.org/2000/svg">
<g clip-path="url(#clip0_1_11886)">
<path d="M16 32C24.8366 32 32 24.8366 32 16C32 7.16344 24.8366 0 16 0C7.16344 0 0 7.16344 0 16C0 24.8366 7.16344 32 16 32Z" fill="#FF0420"/>
<path d="M11.3365 20.2525C10.3838 20.2525 9.60324 20.0283 8.99479 19.58C8.39434 19.1237 8.09412 18.4753 8.09412 17.6346C8.09412 17.4585 8.11415 17.2423 8.15415 16.9861C8.25828 16.4097 8.40637 15.7172 8.5985 14.9086C9.14288 12.707 10.5479 11.6062 12.8136 11.6062C13.4301 11.6062 13.9824 11.7103 14.4708 11.9184C14.9592 12.1185 15.3435 12.4228 15.6237 12.8311C15.9038 13.2314 16.044 13.7117 16.044 14.2721C16.044 14.4402 16.024 14.6524 15.9839 14.9086C15.8638 15.6211 15.7197 16.3137 15.5516 16.9861C15.2714 18.0829 14.787 18.9035 14.0985 19.4479C13.41 19.9843 12.4894 20.2525 11.3365 20.2525ZM11.5046 18.5233C11.953 18.5233 12.3332 18.3912 12.6455 18.127C12.9657 17.8628 13.1939 17.4585 13.33 16.9141C13.5141 16.1615 13.6542 15.505 13.7503 14.9446C13.7823 14.7765 13.7983 14.6044 13.7983 14.4282C13.7983 13.6997 13.418 13.3354 12.6575 13.3354C12.2091 13.3354 11.8249 13.4675 11.5046 13.7317C11.1924 13.996 10.9682 14.4002 10.8322 14.9446C10.688 15.481 10.5439 16.1375 10.3998 16.9141C10.3678 17.0742 10.3518 17.2423 10.3518 17.4184C10.3518 18.155 10.7361 18.5233 11.5046 18.5233Z" fill="white"/>
<path d="M16.5954 20.1325C16.5073 20.1325 16.4392 20.1044 16.3912 20.0484C16.3512 19.9843 16.3392 19.9123 16.3552 19.8322L18.0124 12.0265C18.0284 11.9384 18.0724 11.8664 18.1445 11.8103C18.2166 11.7543 18.2926 11.7263 18.3727 11.7263H21.567C22.4557 11.7263 23.1682 11.9104 23.7046 12.2786C24.249 12.647 24.5212 13.1793 24.5212 13.8758C24.5212 14.076 24.4972 14.2841 24.4491 14.5003C24.249 15.421 23.8447 16.1015 23.2363 16.5418C22.6358 16.9821 21.8112 17.2023 20.7624 17.2023H19.1412L18.5889 19.8322C18.5728 19.9203 18.5288 19.9923 18.4568 20.0484C18.3847 20.1044 18.3086 20.1325 18.2286 20.1325H16.5954ZM20.8465 15.5451C21.1827 15.5451 21.4749 15.453 21.7231 15.2688C21.9793 15.0847 22.1474 14.8205 22.2275 14.4763C22.2515 14.3401 22.2635 14.2201 22.2635 14.116C22.2635 13.8838 22.1955 13.7077 22.0594 13.5876C21.9233 13.4595 21.6911 13.3955 21.3629 13.3955H19.9218L19.4655 15.5451H20.8465Z" fill="white"/>
</g>
<defs>
<clipPath id="clip0_1_11886">
<rect width="32" height="32" fill="white"/>
</clipPath>
</defs>
</svg>
