<svg width="16" height="16" viewBox="0 0 16 16" fill="none" xmlns="http://www.w3.org/2000/svg"><path fill-rule="evenodd" clip-rule="evenodd" d="M8.0013 2.00008C4.68759 2.00008 2.0013 4.68637 2.0013 8.00008C2.0013 11.3138 4.68759 14.0001 8.0013 14.0001C11.315 14.0001 14.0013 11.3138 14.0013 8.00008C14.0013 4.68637 11.315 2.00008 8.0013 2.00008ZM0.667969 8.00008C0.667969 3.94999 3.95121 0.666748 8.0013 0.666748C12.0514 0.666748 15.3346 3.94999 15.3346 8.00008C15.3346 12.0502 12.0514 15.3334 8.0013 15.3334C3.95121 15.3334 0.667969 12.0502 0.667969 8.00008Z" fill="#877CA3"></path><path d="M8 12C8.41421 12 8.75 11.6642 8.75 11.25C8.75 10.8358 8.41421 10.5 8 10.5C7.58579 10.5 7.25 10.8358 7.25 11.25C7.25 11.6642 7.58579 12 8 12Z" fill="#877CA3"></path><path fill-rule="evenodd" clip-rule="evenodd" d="M7.07388 4.51721C7.51547 4.3343 8.00138 4.28644 8.47017 4.37969C8.93895 4.47294 9.36956 4.7031 9.70754 5.04108C10.0455 5.37906 10.2757 5.80966 10.3689 6.27845C10.4622 6.74724 10.4143 7.23315 10.2314 7.67474C10.0485 8.11633 9.73874 8.49376 9.34133 8.7593C9.13125 8.89967 8.90166 9.00545 8.6613 9.07398C8.62446 9.40731 8.34186 9.66659 7.9987 9.66659C7.63051 9.66659 7.33203 9.36811 7.33203 8.99992V8.49992C7.33203 8.32311 7.40227 8.15354 7.52729 8.02852C7.65232 7.90349 7.82189 7.83325 7.9987 7.83325C8.21296 7.83325 8.42241 7.76972 8.60057 7.65068C8.77872 7.53164 8.91757 7.36245 8.99957 7.16449C9.08156 6.96654 9.10302 6.74872 9.06122 6.53857C9.01941 6.32843 8.91624 6.13539 8.76473 5.98389C8.61322 5.83238 8.42019 5.7292 8.21005 5.6874C7.9999 5.6456 7.78208 5.66706 7.58412 5.74905C7.38617 5.83105 7.21698 5.9699 7.09794 6.14805C6.9789 6.32621 6.91536 6.53566 6.91536 6.74992C6.91536 7.11811 6.61689 7.41659 6.2487 7.41659C5.88051 7.41659 5.58203 7.11811 5.58203 6.74992C5.58203 6.27195 5.72377 5.80471 5.98931 5.40729C6.25486 5.00987 6.63229 4.70012 7.07388 4.51721Z" fill="#877CA3"></path></svg>