<svg width="16" height="16" viewBox="0 0 16 17" fill="none" stroke="#864df7" xmlns="http://www.w3.org/2000/svg"><path d="M15.333 14.5V13.1667C15.3326 12.5758 15.1359 12.0019 14.7739 11.5349C14.4119 11.0679 13.9051 10.7344 13.333 10.5867" stroke="#864df7" stroke-width="1.33333" stroke-linecap="round" stroke-linejoin="round"></path><path d="M11.3337 14.5V13.1667C11.3337 12.4594 11.0527 11.7811 10.5526 11.281C10.0525 10.781 9.37424 10.5 8.66699 10.5H3.33366C2.62641 10.5 1.94814 10.781 1.44804 11.281C0.947944 11.7811 0.666992 12.4594 0.666992 13.1667V14.5" stroke="#864df7" stroke-width="1.33333" stroke-linecap="round" stroke-linejoin="round"></path><path d="M10.667 2.58667C11.2406 2.73354 11.749 3.06714 12.1121 3.53488C12.4752 4.00262 12.6722 4.57789 12.6722 5.17C12.6722 5.76212 12.4752 6.33739 12.1121 6.80513C11.749 7.27287 11.2406 7.60647 10.667 7.75334" stroke="#864df7" stroke-width="1.33333" stroke-linecap="round" stroke-linejoin="round"></path><path d="M5.99967 7.83333C7.47243 7.83333 8.66634 6.63943 8.66634 5.16667C8.66634 3.69391 7.47243 2.5 5.99967 2.5C4.52691 2.5 3.33301 3.69391 3.33301 5.16667C3.33301 6.63943 4.52691 7.83333 5.99967 7.83333Z" stroke="#864df7" stroke-width="1.33333" stroke-linecap="round" stroke-linejoin="round"></path></svg>