<svg width="16px" height="16px" viewBox="0 0 16 16" fill="none" xmlns="http://www.w3.org/2000/svg"><path fill-rule="evenodd" clip-rule="evenodd" d="M5.33203 13.9999C5.33203 13.6317 5.63051 13.3333 5.9987 13.3333H9.9987C10.3669 13.3333 10.6654 13.6317 10.6654 13.9999C10.6654 14.3681 10.3669 14.6666 9.9987 14.6666H5.9987C5.63051 14.6666 5.33203 14.3681 5.33203 13.9999Z" fill="#864DF7"></path><path fill-rule="evenodd" clip-rule="evenodd" d="M7.9987 10.8333C8.36689 10.8333 8.66536 11.1317 8.66536 11.4999V13.9999C8.66536 14.3681 8.36689 14.6666 7.9987 14.6666C7.63051 14.6666 7.33203 14.3681 7.33203 13.9999V11.4999C7.33203 11.1317 7.63051 10.8333 7.9987 10.8333Z" fill="#864DF7"></path><path fill-rule="evenodd" clip-rule="evenodd" d="M11.8352 4.49992C11.8352 4.13173 12.1336 3.83325 12.5018 3.83325H14.5018C14.8112 3.83325 15.108 3.95617 15.3268 4.17496C15.5456 4.39375 15.6685 4.6905 15.6685 4.99992V5.99992C15.6685 6.70716 15.3875 7.38544 14.8874 7.88554C14.3873 8.38563 13.7091 8.66659 13.0018 8.66659H12.3893C12.0211 8.66659 11.7227 8.36811 11.7227 7.99992C11.7227 7.63173 12.0211 7.33325 12.3893 7.33325H13.0018C13.3554 7.33325 13.6946 7.19278 13.9446 6.94273C14.1947 6.69268 14.3352 6.35354 14.3352 5.99992V5.16659H12.5018C12.1336 5.16659 11.8352 4.86811 11.8352 4.49992Z" fill="#864DF7"></path><path fill-rule="evenodd" clip-rule="evenodd" d="M1.66146 5.16659H3.49479C3.86298 5.16659 4.16146 4.86811 4.16146 4.49992C4.16146 4.13173 3.86298 3.83325 3.49479 3.83325H1.49479C1.18537 3.83325 0.888626 3.95617 0.669834 4.17496C0.451041 4.39375 0.328125 4.6905 0.328125 4.99992V5.99992C0.328125 6.70716 0.609077 7.38544 1.10917 7.88554C1.60927 8.38563 2.28755 8.66659 2.99479 8.66659H3.62604C3.99423 8.66659 4.29271 8.36811 4.29271 7.99992C4.29271 7.63173 3.99423 7.33325 3.62604 7.33325H2.99479C2.64117 7.33325 2.30203 7.19278 2.05198 6.94273C1.80193 6.69268 1.66146 6.35354 1.66146 5.99992V5.16659Z" fill="#864DF7"></path><path fill-rule="evenodd" clip-rule="evenodd" d="M3.9987 2.33325C3.68928 2.33325 3.39253 2.45617 3.17374 2.67496C2.95495 2.89375 2.83203 3.1905 2.83203 3.49992V6.94367C2.83203 9.78086 5.10516 12.145 7.96282 12.1666C8.64433 12.1713 9.32004 12.0412 9.95104 11.7836C10.582 11.5261 11.1558 11.1463 11.6394 10.666C12.123 10.1858 12.5068 9.61462 12.7687 8.98542C13.0306 8.35623 13.1654 7.68142 13.1654 6.9999V3.49992C13.1654 3.1905 13.0424 2.89375 12.8237 2.67496C12.6049 2.45617 12.3081 2.33325 11.9987 2.33325H3.9987ZM4.16536 6.94367V3.66659L4.32263 3.96267L4.16797 3.66659L11.832 3.66659L11.8345 3.66659V5.33329L11.832 5.337V6.99992C11.832 7.50557 11.732 8.00624 11.5377 8.47306C11.3434 8.93989 11.0587 9.36366 10.6999 9.71997C10.3411 10.0763 9.91537 10.3581 9.44721 10.5491C9.02258 10.7225 8.57033 10.818 8.1126 10.8317L7.9987 10.9999L7.91115 10.8323C5.83467 10.7833 4.16536 9.04829 4.16536 6.94367Z" fill="#864DF7"></path></svg>