<svg width="32" height="32" viewBox="0 0 32 32" fill="none" xmlns="http://www.w3.org/2000/svg">
<g clip-path="url(#clip0_13641_81173)">
<path d="M16 32C24.8366 32 32 24.8366 32 16C32 7.16344 24.8366 0 16 0C7.16344 0 0 7.16344 0 16C0 24.8366 7.16344 32 16 32Z" fill="#3800EB"/>
<path d="M20.6495 11.5L25 7L14.2826 7C14.0262 7 13.7803 7.10536 13.599 7.29289L7.28317 13.8258C6.91826 14.2032 6.90429 14.8106 7.25142 15.2055L11.4652 20L11.4652 12.5C11.4652 11.9477 11.898 11.5 12.432 11.5L20.6495 11.5Z" fill="white"/>
<path d="M11.3505 20.5L7 25L17.7174 25C17.9738 25 18.2197 24.8946 18.401 24.7071L24.7168 18.1742C25.0817 17.7968 25.0957 17.1894 24.7486 16.7945L20.5348 12L20.5348 19.5C20.5348 20.0523 20.102 20.5 19.568 20.5L11.3505 20.5Z" fill="white"/>
</g>
<defs>
<clipPath id="clip0_13641_81173">
<rect width="32" height="32" fill="white"/>
</clipPath>
</defs>
</svg>
