<svg width="24" height="24" viewBox="0 0 20 20" fill="none" xmlns="http://www.w3.org/2000/svg"><g clip-path="url(#clip0_2689_3450)"><path d="M10.4325 2.79478C10.5131 2.57713 10.8209 2.57713 10.9015 2.79478L12.5049 7.12813C12.6822 7.60714 13.0599 7.98481 13.5389 8.16206L17.8722 9.76554C18.0899 9.84608 18.0899 10.1539 17.8722 10.2345L13.5389 11.8379C13.0599 12.0152 12.6822 12.3929 12.5049 12.8719L10.9015 17.2052C10.8209 17.4229 10.5131 17.4229 10.4325 17.2052L8.82905 12.8719C8.6518 12.3929 8.27413 12.0152 7.79512 11.8379L3.46178 10.2345C3.24412 10.1539 3.24412 9.84608 3.46178 9.76554L7.79512 8.16206C8.27413 7.98481 8.6518 7.60714 8.82905 7.12813L10.4325 2.79478Z" stroke="#05f283" stroke-width="1.5"></path><path d="M2.19807 2.26722C2.35915 1.83191 2.97484 1.83191 3.13592 2.26722L3.53252 3.33903C3.58317 3.47589 3.69107 3.5838 3.82793 3.63444L4.89974 4.03104C5.33505 4.19212 5.33505 4.80782 4.89974 4.9689L3.82793 5.3655C3.69107 5.41614 3.58317 5.52405 3.53252 5.66091L3.13592 6.73272C2.97484 7.16803 2.35915 7.16803 2.19807 6.73272L1.80146 5.66091C1.75082 5.52405 1.64291 5.41614 1.50605 5.3655L0.434245 4.9689C-0.00106448 4.80782 -0.00106364 4.19212 0.434245 4.03104L1.50605 3.63444C1.64291 3.5838 1.75082 3.47589 1.80146 3.33903L2.19807 2.26722Z" fill="#05f283"></path><path d="M2.19807 14.2673C2.35914 13.832 2.97484 13.832 3.13592 14.2673L3.26243 14.6092C3.31307 14.7461 3.42098 14.854 3.55784 14.9047L3.89974 15.0312C4.33505 15.1922 4.33505 15.8079 3.89974 15.969L3.55784 16.0955C3.42098 16.1462 3.31307 16.2541 3.26243 16.3909L3.13592 16.7328C2.97484 17.1681 2.35915 17.1681 2.19807 16.7328L2.07155 16.3909C2.02091 16.2541 1.913 16.1462 1.77614 16.0955L1.43425 15.969C0.998937 15.8079 0.998936 15.1922 1.43425 15.0312L1.77614 14.9047C1.913 14.854 2.02091 14.7461 2.07155 14.6092L2.19807 14.2673Z" fill="#05f283"></path></g><defs><clipPath id="clip0_2689_3450"><rect width="20" height="20" fill="white"></rect></clipPath></defs></svg>